<svg xmlns="http://www.w3.org/2000/svg" width="70" viewBox="0 0 52.5 62.25" height="83" version="1.0"><defs><clipPath id="a"><path d="M.066 0H51.2v60.77H.066Zm0 0"/></clipPath></defs><g clip-path="url(#a)"><path fill="#0e0028" d="M44.16 0H7.21C3.282 0 .083 3.2.083 7.129v41.82c0 3.934 3.2 7.13 7.129 7.13v-4.75a2.38 2.38 0 0 1-2.375-2.38 2.379 2.379 0 0 1 2.375-2.375h4.754v14.32l8.316-4.492 8.317 4.493v-14.32H44.16c3.934 0 7.13-3.2 7.13-7.13V7.13A7.136 7.136 0 0 0 44.16 0ZM23.844 52.93l-3.563-1.926-3.566 1.926v-6.356h7.129Zm22.695-13.485a2.377 2.377 0 0 1-2.379 2.375H7.21a7.04 7.04 0 0 0-2.374.41V7.13A2.379 2.379 0 0 1 7.21 4.754h36.95a2.38 2.38 0 0 1 2.378 2.375ZM11.965 14.258H39.41v4.754H11.965Zm32.195 37.07a11.8 11.8 0 0 0 7.13-2.383v.004a7.134 7.134 0 0 1-7.13 7.13H33.352v-4.75Zm0 0"/></g></svg>