<svg xmlns="http://www.w3.org/2000/svg" xmlns:xlink="http://www.w3.org/1999/xlink" zoomAndPan="magnify" viewBox="0 0 52 97.5" height="130" preserveAspectRatio="xMidYMid meet" version="1.0"><defs><g/><clipPath id="d96d8ffc83"><path d="M 0.390625 17.480469 L 51.875 17.480469 L 51.875 78.667969 L 0.390625 78.667969 Z M 0.390625 17.480469 " clip-rule="nonzero"/></clipPath></defs><g clip-path="url(#d96d8ffc83)"><path fill="#0e0028" d="M 44.789062 17.480469 L 7.585938 17.480469 C 3.628906 17.480469 0.40625 20.703125 0.40625 24.660156 L 0.40625 66.769531 C 0.40625 70.726562 3.628906 73.945312 7.585938 73.945312 L 7.585938 69.160156 C 6.265625 69.160156 5.191406 68.089844 5.191406 66.769531 C 5.191406 65.449219 6.265625 64.375 7.585938 64.375 L 12.371094 64.375 L 12.371094 78.796875 L 20.746094 74.273438 L 29.117188 78.796875 L 29.117188 64.375 L 44.789062 64.375 C 48.75 64.375 51.96875 61.15625 51.96875 57.199219 L 51.96875 24.660156 C 51.96875 20.703125 48.75 17.480469 44.789062 17.480469 Z M 24.332031 70.773438 L 20.746094 68.835938 L 17.15625 70.773438 L 17.15625 64.375 L 24.332031 64.375 Z M 47.183594 57.199219 C 47.183594 58.519531 46.109375 59.589844 44.789062 59.589844 L 7.585938 59.589844 C 6.746094 59.589844 5.941406 59.734375 5.191406 60 L 5.191406 24.660156 C 5.191406 23.339844 6.265625 22.265625 7.585938 22.265625 L 44.789062 22.265625 C 46.109375 22.265625 47.183594 23.339844 47.183594 24.660156 Z M 12.371094 31.835938 L 40.003906 31.835938 L 40.003906 36.621094 L 12.371094 36.621094 Z M 44.789062 69.160156 C 47.480469 69.160156 49.96875 68.269531 51.96875 66.761719 L 51.96875 66.769531 C 51.96875 70.726562 48.75 73.945312 44.789062 73.945312 L 33.902344 73.945312 L 33.902344 69.160156 Z M 44.789062 69.160156 " fill-opacity="1" fill-rule="nonzero"/></g></svg>