<svg xmlns="http://www.w3.org/2000/svg" xmlns:xlink="http://www.w3.org/1999/xlink" width="399" zoomAndPan="magnify" viewBox="0 0 299.25 97.5" height="130" preserveAspectRatio="xMidYMid meet" version="1.0"><defs><g/><clipPath id="9e5916ad9b"><path d="M 0.390625 17.480469 L 51.875 17.480469 L 51.875 78.667969 L 0.390625 78.667969 Z M 0.390625 17.480469 " clip-rule="nonzero"/></clipPath></defs><g clip-path="url(#9e5916ad9b)"><path fill="#5271ff" d="M 44.789062 17.480469 L 7.585938 17.480469 C 3.628906 17.480469 0.40625 20.703125 0.40625 24.660156 L 0.40625 66.769531 C 0.40625 70.726562 3.628906 73.945312 7.585938 73.945312 L 7.585938 69.160156 C 6.265625 69.160156 5.191406 68.089844 5.191406 66.769531 C 5.191406 65.449219 6.265625 64.375 7.585938 64.375 L 12.371094 64.375 L 12.371094 78.796875 L 20.746094 74.273438 L 29.117188 78.796875 L 29.117188 64.375 L 44.789062 64.375 C 48.75 64.375 51.96875 61.15625 51.96875 57.199219 L 51.96875 24.660156 C 51.96875 20.703125 48.75 17.480469 44.789062 17.480469 Z M 24.332031 70.773438 L 20.746094 68.835938 L 17.15625 70.773438 L 17.15625 64.375 L 24.332031 64.375 Z M 47.183594 57.199219 C 47.183594 58.519531 46.109375 59.589844 44.789062 59.589844 L 7.585938 59.589844 C 6.746094 59.589844 5.941406 59.734375 5.191406 60 L 5.191406 24.660156 C 5.191406 23.339844 6.265625 22.265625 7.585938 22.265625 L 44.789062 22.265625 C 46.109375 22.265625 47.183594 23.339844 47.183594 24.660156 Z M 12.371094 31.835938 L 40.003906 31.835938 L 40.003906 36.621094 L 12.371094 36.621094 Z M 44.789062 69.160156 C 47.480469 69.160156 49.96875 68.269531 51.96875 66.761719 L 51.96875 66.769531 C 51.96875 70.726562 48.75 73.945312 44.789062 73.945312 L 33.902344 73.945312 L 33.902344 69.160156 Z M 44.789062 69.160156 " fill-opacity="1" fill-rule="nonzero"/></g><g fill="#22201c" fill-opacity="1"><g transform="translate(71.095726, 63.636498)"><g><path d="M 27.78125 0 L 27.78125 -6.359375 L 10.734375 -6.359375 L 10.734375 -14.359375 L 27.421875 -14.359375 L 27.421875 -20.65625 L 10.734375 -20.65625 L 10.734375 -28.140625 L 27.78125 -28.140625 L 27.78125 -34.4375 L 3.40625 -34.4375 L 3.40625 0 Z M 27.78125 0 "/></g></g></g><g fill="#22201c" fill-opacity="1"><g transform="translate(101.200324, 63.636498)"><g><path d="M 27.015625 0 L 27.015625 -34.4375 L 20.390625 -34.4375 L 20.390625 -21.734375 C 18.4375 -24.265625 15.640625 -25.5625 12.703125 -25.5625 C 6.359375 -25.5625 1.65625 -20.609375 1.65625 -12.453125 C 1.65625 -4.125 6.40625 0.625 12.703125 0.625 C 15.703125 0.625 18.4375 -0.71875 20.390625 -3.15625 L 20.390625 0 Z M 20.390625 -8.0625 C 19.265625 -6.40625 16.9375 -5.21875 14.71875 -5.21875 C 11 -5.21875 8.421875 -8.15625 8.421875 -12.453125 C 8.421875 -16.78125 11 -19.734375 14.71875 -19.734375 C 16.9375 -19.734375 19.265625 -18.53125 20.390625 -16.890625 Z M 20.390625 -8.0625 "/></g></g></g><g fill="#22201c" fill-opacity="1"><g transform="translate(131.459838, 63.636498)"><g><path d="M 26.640625 0 L 26.640625 -24.9375 L 20.09375 -24.9375 L 20.09375 -8.0625 C 18.953125 -6.609375 16.9375 -5.21875 14.40625 -5.21875 C 11.625 -5.21875 9.8125 -6.359375 9.8125 -9.8125 L 9.8125 -24.9375 L 3.25 -24.9375 L 3.25 -7.234375 C 3.25 -2.375 5.828125 0.625 11.3125 0.625 C 15.390625 0.625 18.390625 -1.234375 20.09375 -3.15625 L 20.09375 0 Z M 26.640625 0 "/></g></g></g><g fill="#22201c" fill-opacity="1"><g transform="translate(161.357895, 63.636498)"><g><path d="M 31.296875 0 L 23.546875 -13.109375 C 27.265625 -14 31.09375 -17.25 31.09375 -23.34375 C 31.09375 -29.75 26.703125 -34.4375 19.515625 -34.4375 L 3.40625 -34.4375 L 3.40625 0 L 10.734375 0 L 10.734375 -12.34375 L 16.109375 -12.34375 L 22.875 0 Z M 23.59375 -23.390625 C 23.59375 -20.5 21.375 -18.640625 18.4375 -18.640625 L 10.734375 -18.640625 L 10.734375 -28.140625 L 18.4375 -28.140625 C 21.375 -28.140625 23.59375 -26.28125 23.59375 -23.390625 Z M 23.59375 -23.390625 "/></g></g></g><g fill="#22201c" fill-opacity="1"><g transform="translate(194.560746, 63.636498)"><g><path d="M 24.78125 0 L 24.78125 -16.109375 C 24.78125 -23.296875 19.578125 -25.5625 13.890625 -25.5625 C 9.96875 -25.5625 6.046875 -24.328125 3 -21.640625 L 5.46875 -17.25 C 7.59375 -19.203125 10.0625 -20.1875 12.75 -20.1875 C 16.0625 -20.1875 18.234375 -18.53125 18.234375 -16.015625 L 18.234375 -12.546875 C 16.578125 -14.5625 13.640625 -15.59375 10.328125 -15.59375 C 6.359375 -15.59375 1.65625 -13.484375 1.65625 -7.640625 C 1.65625 -2.0625 6.359375 0.625 10.328125 0.625 C 13.578125 0.625 16.53125 -0.5625 18.234375 -2.578125 L 18.234375 0 Z M 18.234375 -5.984375 C 17.140625 -4.546875 15.078125 -3.828125 12.96875 -3.828125 C 10.375 -3.828125 8.265625 -5.15625 8.265625 -7.484375 C 8.265625 -9.859375 10.375 -11.25 12.96875 -11.25 C 15.078125 -11.25 17.140625 -10.53125 18.234375 -9.09375 Z M 18.234375 -5.984375 "/></g></g></g><g fill="#22201c" fill-opacity="1"><g transform="translate(222.599851, 63.636498)"><g><path d="M 26.640625 0 L 26.640625 -17.609375 C 26.640625 -22.46875 24.015625 -25.5625 18.53125 -25.5625 C 14.453125 -25.5625 11.40625 -23.59375 9.8125 -21.6875 L 9.8125 -24.9375 L 3.25 -24.9375 L 3.25 0 L 9.8125 0 L 9.8125 -16.78125 C 10.890625 -18.28125 12.90625 -19.734375 15.484375 -19.734375 C 18.28125 -19.734375 20.09375 -18.53125 20.09375 -15.078125 L 20.09375 0 Z M 26.640625 0 "/></g></g></g><g fill="#22201c" fill-opacity="1"><g transform="translate(252.497909, 63.636498)"><g><path d="M 27.625 0 L 17.453125 -13.640625 L 27.3125 -24.9375 L 19.265625 -24.9375 L 9.8125 -13.84375 L 9.8125 -34.4375 L 3.25 -34.4375 L 3.25 0 L 9.8125 0 L 9.8125 -6.40625 L 12.8125 -9.609375 L 19.421875 0 Z M 27.625 0 "/></g></g></g></svg>