<svg xmlns="http://www.w3.org/2000/svg" width="500" zoomAndPan="magnify" viewBox="0 0 375 375" height="500" preserveAspectRatio="xMidYMid meet"><defs><clipPath id="A"><path d="M187.5 0C291.055 0 375 83.945 375 187.5S291.055 375 187.5 375 0 291.055 0 187.5 83.945 0 187.5 0zm0 0" clip-rule="nonzero"/></clipPath><clipPath id="B"><path d="M101.801 85.625h171.75v204h-171.75zm0 0" clip-rule="nonzero"/></clipPath></defs><g clip-path="url(#A)"><path fill="#5271ff" d="M-37.5-37.5h450v450h-450z"/></g><g clip-path="url(#B)"><path fill="#fff" d="M249.34 85.625H125.711c-13.152 0-23.852 10.703-23.852 23.852v139.93c0 13.152 10.699 23.852 23.852 23.852v-15.902a7.96 7.96 0 0 1-7.949-7.949 7.96 7.96 0 0 1 7.949-7.949h15.898v47.91l27.828-15.023 27.828 15.023v-47.91h52.074c13.152 0 23.852-10.699 23.852-23.852V109.477c0-13.148-10.699-23.852-23.852-23.852zm-67.977 177.086l-11.926-6.437-11.926 6.438v-21.254h23.852zm75.926-45.105a7.96 7.96 0 0 1-7.949 7.949H125.711c-2.785 0-5.465.48-7.949 1.363V109.477a7.96 7.96 0 0 1 7.949-7.949H249.34a7.96 7.96 0 0 1 7.949 7.949zm-115.68-84.277h91.828v15.902h-91.828zm107.73 124.027c8.941 0 17.203-2.969 23.852-7.969v.02c0 13.152-10.699 23.852-23.852 23.852h-36.176v-15.902zm0 0"/></g></svg>